<svg width="48" height="36" viewBox="0 0 48 36" fill="none" xmlns="http://www.w3.org/2000/svg">
<path d="M31.7838 28.8C37.1574 28.8 41.5135 23.9647 41.5135 18C41.5135 12.0353 37.1574 7.2 31.7838 7.2C26.7407 7.2 22.5937 11.4589 22.1027 16.9132C20.1149 15.9152 17.9673 15.3188 15.7681 15.1618C16.9942 6.5692 23.6979 0 31.7838 0C40.7398 0 48 8.05888 48 18C48 27.5785 41.2597 35.4096 32.7567 35.9681V36H22.0698V34.4291C22.0698 32.3883 21.3116 30.4039 19.922 28.9202C18.5284 27.4324 16.6141 26.5746 14.5946 26.5746C12.575 26.5746 10.6608 27.4324 9.26715 28.9202C7.87753 30.4039 7.1193 32.3883 7.1193 34.4291V36H0V34.3906C0 30.1834 1.573 26.1815 4.32438 23.2558C6.98773 20.4237 10.5443 18.8192 14.2468 18.7245C14.3626 18.7215 14.4785 18.72 14.5946 18.72C14.6844 18.72 14.7742 18.7209 14.8639 18.7227C18.5945 18.7966 22.1826 20.4036 24.8648 23.2558C26.3506 24.8358 27.4928 26.7295 28.2291 28.8H31.7838Z" fill="white"/>
<path d="M17.682 31.2417C18.5259 32.0367 19 33.115 19 34.2394V36H10V34.2394C10 33.115 10.4741 32.0367 11.318 31.2417C12.1619 30.4466 13.3065 30 14.5 30C15.6935 30 16.8381 30.4466 17.682 31.2417Z" fill="white"/>
<path d="M35 15.7272C33.8954 15.7272 33 14.6691 33 13.3637V12.7727C33 11.7937 32.3284 11 31.5 11C30.6716 11 30 11.7936 30 12.7727V13.3637C30 14.6691 29.1046 15.7272 28 15.7272H27.5C26.6716 15.7272 26 16.5209 26 17.5C26 18.4791 26.6716 19.2727 27.5 19.2727H28C29.1046 19.2727 30 20.3309 30 21.6363V22.2273C30 23.2064 30.6716 24 31.5 24C32.3284 24 33 23.2064 33 22.2273V21.6363C33 20.3309 33.8954 19.2727 35 19.2727H35.5C36.3285 19.2727 37 18.4791 37 17.5C37 16.5209 36.3285 15.7272 35.5 15.7272H35Z" fill="white"/>
<path d="M8.90917 2.90913C8.90917 4.51575 10.0488 5.81817 11.4546 5.81817H12.0909C13.1453 5.81817 14 6.79501 14 7.99999C14 9.205 13.1453 10.1818 12.0909 10.1818H11.4546C10.0488 10.1818 8.90917 11.4843 8.90917 13.0908V13.8182C8.90917 15.0232 8.05445 16 7.00009 16C5.94573 16 5.091 15.0232 5.091 13.8182V13.0909C5.091 11.4843 3.95136 10.1818 2.54554 10.1818H1.90909C0.854732 10.1818 0 9.205 0 7.99999C0 6.79501 0.854732 5.81817 1.90909 5.81817H2.54555C3.95136 5.81817 5.091 4.51574 5.091 2.90909V2.18182C5.091 0.976836 5.94573 0 7.00009 0C8.05445 0 8.90917 0.976836 8.90917 2.18182V2.90913Z" fill="white"/>
</svg>
